<svg version="1.1" viewBox="0.0 0.0 605.7427821522309 438.93438320209975" fill="none" stroke="none" stroke-linecap="square" stroke-miterlimit="10" xmlns:xlink="http://www.w3.org/1999/xlink" xmlns="http://www.w3.org/2000/svg"><clipPath id="p.0"><path d="m0 0l605.7428 0l0 438.9344l-605.7428 0l0 -438.9344z" clip-rule="nonzero"/></clipPath><g clip-path="url(#p.0)"><path fill="#000000" fill-opacity="0.0" d="m0 0l605.7428 0l0 438.9344l-605.7428 0z" fill-rule="evenodd"/><path fill="#000000" fill-opacity="0.0" d="m6.9265094 297.43097l0 0c0 -14.658295 11.882906 -26.541199 26.541214 -26.541199l539.453 0c7.0391846 0 13.790039 2.7962952 18.767456 7.7737427c4.977478 4.9774475 7.7737427 11.728302 7.7737427 18.767456l0 106.16168c0 14.658295 -11.882874 26.541199 -26.541199 26.541199l-539.453 0c-14.658308 0 -26.541214 -11.882904 -26.541214 -26.541199z" fill-rule="evenodd"/><path stroke="#000000" stroke-width="12.0" stroke-linejoin="round" stroke-linecap="butt" d="m6.9265094 297.43097l0 0c0 -14.658295 11.882906 -26.541199 26.541214 -26.541199l539.453 0c7.0391846 0 13.790039 2.7962952 18.767456 7.7737427c4.977478 4.9774475 7.7737427 11.728302 7.7737427 18.767456l0 106.16168c0 14.658295 -11.882874 26.541199 -26.541199 26.541199l-539.453 0c-14.658308 0 -26.541214 -11.882904 -26.541214 -26.541199z" fill-rule="evenodd"/><path fill="#000000" d="m495.3446 352.40158l0 0c0 -11.663208 9.447845 -21.118103 21.102356 -21.118103l0 0c5.5966797 0 10.964172 2.2249146 14.921631 6.1853333c3.9574585 3.9604187 6.180725 9.331879 6.180725 14.93277l0 0c0 11.663208 -9.447815 21.118103 -21.102356 21.118103l0 0c-11.6545105 0 -21.102356 -9.454895 -21.102356 -21.118103z" fill-rule="evenodd"/><path fill="#000000" fill-opacity="0.0" d="m210.39896 163.34908l0 0c24.525208 -21.71016 57.788544 -33.9068 92.47244 -33.9068c34.6839 0 67.947205 12.19664 92.47244 33.9068l-92.47244 81.85828z" fill-rule="evenodd"/><path fill="#000000" fill-opacity="0.0" d="m210.39896 163.34908l0 0c24.525208 -21.71016 57.788544 -33.9068 92.47244 -33.9068c34.6839 0 67.947205 12.19664 92.47244 33.9068" fill-rule="evenodd"/><path stroke="#000000" stroke-width="12.0" stroke-linejoin="round" stroke-linecap="butt" d="m210.39896 163.34908l0 0c24.525208 -21.71016 57.788544 -33.9068 92.47244 -33.9068c34.6839 0 67.947205 12.19664 92.47244 33.9068" fill-rule="evenodd"/><path fill="#000000" fill-opacity="0.0" d="m265.51834 217.40158l0 0c9.915344 -8.775116 23.363403 -13.704926 37.385803 -13.704926c14.02243 0 27.47049 4.9298096 37.385834 13.704926l-37.385834 33.08661z" fill-rule="evenodd"/><path fill="#000000" fill-opacity="0.0" d="m265.51834 217.40158l0 0c9.915344 -8.775116 23.363403 -13.704926 37.385803 -13.704926c14.02243 0 27.47049 4.9298096 37.385834 13.704926" fill-rule="evenodd"/><path stroke="#000000" stroke-width="12.0" stroke-linejoin="round" stroke-linecap="butt" d="m265.51834 217.40158l0 0c9.915344 -8.775116 23.363403 -13.704926 37.385803 -13.704926c14.02243 0 27.47049 4.9298096 37.385834 13.704926" fill-rule="evenodd"/><path fill="#000000" fill-opacity="0.0" d="m241.5183 190.86089l0 0c16.284714 -14.413574 38.371506 -22.511032 61.401566 -22.511032c23.03006 0 45.116882 8.097458 61.40158 22.511032l-61.40158 54.346466z" fill-rule="evenodd"/><path fill="#000000" fill-opacity="0.0" d="m241.5183 190.86089l0 0c16.284714 -14.413574 38.371506 -22.511032 61.401566 -22.511032c23.03006 0 45.116882 8.097458 61.40158 22.511032" fill-rule="evenodd"/><path stroke="#000000" stroke-width="12.0" stroke-linejoin="round" stroke-linecap="butt" d="m241.5183 190.86089l0 0c16.284714 -14.413574 38.371506 -22.511032 61.401566 -22.511032c23.03006 0 45.116882 8.097458 61.40158 22.511032" fill-rule="evenodd"/><path fill="#000000" d="m437.7638 352.38583l0 0c0 -11.663208 9.454895 -21.118103 21.118103 -21.118103l0 0c5.6008606 0 10.972351 2.2249146 14.932739 6.1853333c3.9604187 3.9604187 6.185364 9.331879 6.185364 14.93277l0 0c0 11.663208 -9.454895 21.118103 -21.118103 21.118103l0 0c-11.663208 0 -21.118103 -9.454895 -21.118103 -21.118103z" fill-rule="evenodd"/><path fill="#000000" d="m380.18317 352.38583l0 0c0 -11.663208 9.454926 -21.118103 21.118134 -21.118103l0 0c5.6008606 0 10.972321 2.2249146 14.932739 6.1853333c3.9604187 3.9604187 6.185364 9.331879 6.185364 14.93277l0 0c0 11.663208 -9.454895 21.118103 -21.118103 21.118103l0 0c-11.663208 0 -21.118134 -9.454895 -21.118134 -21.118103z" fill-rule="evenodd"/><path fill="#000000" d="m79.220474 352.40158l0 0c0 -11.663208 9.447845 -21.118103 21.102364 -21.118103l0 0c5.596695 0 10.964157 2.2249146 14.921623 6.1853333c3.9574585 3.9604187 6.1807327 9.331879 6.1807327 14.93277l0 0c0 11.663208 -9.447845 21.118103 -21.102356 21.118103l0 0c-11.654518 0 -21.102364 -9.454895 -21.102364 -21.118103z" fill-rule="evenodd"/><path fill="#000000" d="m322.60312 352.40158l0 0c0 -11.663208 9.454895 -21.118103 21.118103 -21.118103l0 0c5.600891 0 10.972351 2.2249146 14.93277 6.1853333c3.9604187 3.9604187 6.185364 9.331879 6.185364 14.93277l0 0c0 11.663208 -9.454895 21.118103 -21.118134 21.118103l0 0c-11.663208 0 -21.118103 -9.454895 -21.118103 -21.118103z" fill-rule="evenodd"/><path fill="#000000" fill-opacity="0.0" d="m139.1537 274.9215l-26.456688 -234.58267" fill-rule="evenodd"/><path stroke="#000000" stroke-width="12.0" stroke-linejoin="round" stroke-linecap="butt" d="m139.1537 274.9215l-26.456688 -234.58267" fill-rule="evenodd"/><path fill="#000000" fill-opacity="0.0" d="m56.013557 273.79288l-7.244095 -224.34647" fill-rule="evenodd"/><path stroke="#000000" stroke-width="12.0" stroke-linejoin="round" stroke-linecap="butt" d="m56.013557 273.79288l-7.244095 -224.34647" fill-rule="evenodd"/><path fill="#000000" fill-opacity="0.0" d="m48.769463 49.44642c-1.0444984 -19.191425 11.289116 -35.999763 28.181847 -38.406425c16.89273 -2.40666 32.53662 10.4158 35.745705 29.298841l-31.704887 6.871147z" fill-rule="evenodd"/><path fill="#000000" fill-opacity="0.0" d="m48.769463 49.44642c-1.0444984 -19.191425 11.289116 -35.999763 28.181847 -38.406425c16.89273 -2.40666 32.53662 10.4158 35.745705 29.298841" fill-rule="evenodd"/><path stroke="#000000" stroke-width="12.0" stroke-linejoin="round" stroke-linecap="butt" d="m48.769463 49.44642c-1.0444984 -19.191425 11.289116 -35.999763 28.181847 -38.406425c16.89273 -2.40666 32.53662 10.4158 35.745705 29.298841" fill-rule="evenodd"/><path fill="#000000" fill-opacity="0.0" d="m451.65878 274.9215l26.456696 -234.58267" fill-rule="evenodd"/><path stroke="#000000" stroke-width="12.0" stroke-linejoin="round" stroke-linecap="butt" d="m451.65878 274.9215l26.456696 -234.58267" fill-rule="evenodd"/><path fill="#000000" fill-opacity="0.0" d="m534.79895 273.79288l7.2440796 -224.34647" fill-rule="evenodd"/><path stroke="#000000" stroke-width="12.0" stroke-linejoin="round" stroke-linecap="butt" d="m534.79895 273.79288l7.2440796 -224.34647" fill-rule="evenodd"/><path fill="#000000" fill-opacity="0.0" d="m542.043 49.44642c1.0444946 -19.191425 -11.289124 -35.999763 -28.181824 -38.406425c-16.892761 -2.40666 -32.53665 10.4158 -35.745728 29.298841l31.704895 6.871147z" fill-rule="evenodd"/><path fill="#000000" fill-opacity="0.0" d="m542.043 49.44642c1.0444946 -19.191425 -11.289124 -35.999763 -28.181824 -38.406425c-16.892761 -2.40666 -32.53665 10.4158 -35.745728 29.298841" fill-rule="evenodd"/><path stroke="#000000" stroke-width="12.0" stroke-linejoin="round" stroke-linecap="butt" d="m542.043 49.44642c1.0444946 -19.191425 -11.289124 -35.999763 -28.181824 -38.406425c-16.892761 -2.40666 -32.53665 10.4158 -35.745728 29.298841" fill-rule="evenodd"/></g></svg>