<svg version="1.1" viewBox="0.0 0.0 605.7427821522309 438.93438320209975" fill="none" stroke="none" stroke-linecap="square" stroke-miterlimit="10" xmlns:xlink="http://www.w3.org/1999/xlink" xmlns="http://www.w3.org/2000/svg"><clipPath id="p.0"><path d="m0 0l605.7428 0l0 438.9344l-605.7428 0l0 -438.9344z" clip-rule="nonzero"/></clipPath><g clip-path="url(#p.0)"><path fill="#000000" fill-opacity="0.0" d="m0 0l605.7428 0l0 438.9344l-605.7428 0z" fill-rule="evenodd"/><path fill="#000000" fill-opacity="0.0" d="m6.9265094 297.43097l0 0c0 -14.658295 11.882906 -26.541199 26.541214 -26.541199l539.453 0c7.0391846 0 13.790039 2.7962952 18.767456 7.7737427c4.977478 4.9774475 7.7737427 11.728302 7.7737427 18.767456l0 106.16168c0 14.658295 -11.882874 26.541199 -26.541199 26.541199l-539.453 0c-14.658308 0 -26.541214 -11.882904 -26.541214 -26.541199z" fill-rule="evenodd"/><path stroke="#000000" stroke-width="12.0" stroke-linejoin="round" stroke-linecap="butt" d="m6.9265094 297.43097l0 0c0 -14.658295 11.882906 -26.541199 26.541214 -26.541199l539.453 0c7.0391846 0 13.790039 2.7962952 18.767456 7.7737427c4.977478 4.9774475 7.7737427 11.728302 7.7737427 18.767456l0 106.16168c0 14.658295 -11.882874 26.541199 -26.541199 26.541199l-539.453 0c-14.658308 0 -26.541214 -11.882904 -26.541214 -26.541199z" fill-rule="evenodd"/><path fill="#000000" fill-opacity="0.0" d="m464.7244 338.2651l0 0c0 -16.916443 13.713501 -30.629944 30.629944 -30.629944l0 0c8.123566 0 15.914398 3.2270813 21.6586 8.971313c5.7442627 5.7442017 8.971313 13.535065 8.971313 21.65863l0 0c0 16.916412 -13.713501 30.629913 -30.629913 30.629913l0 0c-16.916443 0 -30.629944 -13.713501 -30.629944 -30.629913z" fill-rule="evenodd"/><path stroke="#000000" stroke-width="12.0" stroke-linejoin="round" stroke-linecap="butt" d="m464.7244 338.2651l0 0c0 -16.916443 13.713501 -30.629944 30.629944 -30.629944l0 0c8.123566 0 15.914398 3.2270813 21.6586 8.971313c5.7442627 5.7442017 8.971313 13.535065 8.971313 21.65863l0 0c0 16.916412 -13.713501 30.629913 -30.629913 30.629913l0 0c-16.916443 0 -30.629944 -13.713501 -30.629944 -30.629913z" fill-rule="evenodd"/><path fill="#000000" fill-opacity="0.0" d="m179.7697 4.580053l0 0c21.71016 21.710161 33.9068 51.155464 33.9068 81.85827c0 30.702805 -12.19664 60.1481 -33.9068 81.85826l-81.85828 -81.85826z" fill-rule="evenodd"/><path fill="#000000" fill-opacity="0.0" d="m179.7697 4.580053l0 0c21.71016 21.710161 33.9068 51.155464 33.9068 81.85827c0 30.702805 -12.19664 60.1481 -33.9068 81.85826" fill-rule="evenodd"/><path stroke="#000000" stroke-width="12.0" stroke-linejoin="round" stroke-linecap="butt" d="m179.7697 4.580053l0 0c21.71016 21.710161 33.9068 51.155464 33.9068 81.85827c0 30.702805 -12.19664 60.1481 -33.9068 81.85826" fill-rule="evenodd"/><path fill="#000000" fill-opacity="0.0" d="m100.32284 277.01575l0 -195.9685" fill-rule="evenodd"/><path stroke="#000000" stroke-width="12.0" stroke-linejoin="round" stroke-linecap="butt" d="m100.32284 277.01575l0 -195.9685" fill-rule="evenodd"/><path fill="#000000" fill-opacity="0.0" d="m125.7172 53.351723l0 0c8.775108 8.775116 13.704918 20.676727 13.704918 33.086617c0 12.409882 -4.9298096 24.311493 -13.704918 33.08661l-33.086617 -33.08661z" fill-rule="evenodd"/><path fill="#000000" fill-opacity="0.0" d="m125.7172 53.351723l0 0c8.775108 8.775116 13.704918 20.676727 13.704918 33.086617c0 12.409882 -4.9298096 24.311493 -13.704918 33.08661" fill-rule="evenodd"/><path stroke="#000000" stroke-width="12.0" stroke-linejoin="round" stroke-linecap="butt" d="m125.7172 53.351723l0 0c8.775108 8.775116 13.704918 20.676727 13.704918 33.086617c0 12.409882 -4.9298096 24.311493 -13.704918 33.08661" fill-rule="evenodd"/><path fill="#000000" fill-opacity="0.0" d="m152.25789 32.112793l0 0c14.413574 14.413578 22.511032 33.962585 22.511032 54.34646c0 20.383873 -8.097458 39.932877 -22.511032 54.34646l-54.346466 -54.34646z" fill-rule="evenodd"/><path fill="#000000" fill-opacity="0.0" d="m152.25789 32.112793l0 0c14.413574 14.413578 22.511032 33.962585 22.511032 54.34646c0 20.383873 -8.097458 39.932877 -22.511032 54.34646" fill-rule="evenodd"/><path stroke="#000000" stroke-width="12.0" stroke-linejoin="round" stroke-linecap="butt" d="m152.25789 32.112793l0 0c14.413574 14.413578 22.511032 33.962585 22.511032 54.34646c0 20.383873 -8.097458 39.932877 -22.511032 54.34646" fill-rule="evenodd"/><path fill="#000000" d="m89.59909 82.8189l0 0c0 -5.922928 4.801483 -10.724411 10.724411 -10.724411l0 0c2.8442917 0 5.5720825 1.1298904 7.5832977 3.1411057c2.0112228 2.0112152 3.1411133 4.7390137 3.1411133 7.5833054l0 0c0 5.922928 -4.801483 10.724403 -10.724411 10.724403l0 0c-5.922928 0 -10.724411 -4.8014755 -10.724411 -10.724403z" fill-rule="evenodd"/></g></svg>